<mxfile host="app.diagrams.net" modified="2023-04-16T03:06:21.022Z" agent="Mozilla/5.0 (Windows NT 10.0; Win64; x64) AppleWebKit/537.36 (KHTML, like Gecko) Chrome/112.0.0.0 Safari/537.36 Edg/112.0.1722.39" version="21.1.8" etag="VAMl14KA4nUp0HUS62pr" type="github">
  <diagram name="第 1 页" id="4vg3NZZzHRa7mflYULg3">
    <mxGraphModel>
      <root>
        <mxCell id="0" />
        <mxCell id="1" parent="0" />
      </root>
    </mxGraphModel>
  </diagram>
</mxfile>
